<?xml version="1.0" encoding="UTF-8" standalone="no"?>
<!-- Created with Inkscape (http://www.inkscape.org/) -->

<svg
   width="210mm"
   height="297mm"
   viewBox="0 0 210 297"
   version="1.1"
   id="svg75786"
   inkscape:version="1.1 (c68e22c387, 2021-05-23)"
   sodipodi:docname="letters.svg"
   xmlns:inkscape="http://www.inkscape.org/namespaces/inkscape"
   xmlns:sodipodi="http://sodipodi.sourceforge.net/DTD/sodipodi-0.dtd"
   xmlns="http://www.w3.org/2000/svg"
   xmlns:svg="http://www.w3.org/2000/svg">
  <sodipodi:namedview
     id="namedview75788"
     pagecolor="#ffffff"
     bordercolor="#666666"
     borderopacity="1.0"
     inkscape:pageshadow="2"
     inkscape:pageopacity="0.0"
     inkscape:pagecheckerboard="0"
     inkscape:document-units="mm"
     showgrid="false"
     inkscape:zoom="1.0482005"
     inkscape:cx="328.18149"
     inkscape:cy="494.65728"
     inkscape:window-width="1920"
     inkscape:window-height="1017"
     inkscape:window-x="-8"
     inkscape:window-y="-8"
     inkscape:window-maximized="1"
     inkscape:current-layer="layer10"
     showguides="true"
     inkscape:guide-bbox="true">
    <sodipodi:guide
       position="91.248644,154.76318"
       orientation="1,0"
       id="guide76210" />
    <sodipodi:guide
       position="94.719376,172.36924"
       orientation="0,-1"
       id="guide76212" />
    <sodipodi:guide
       position="128.60632,147.94793"
       orientation="1,0"
       id="guide76214" />
    <sodipodi:guide
       position="115.03892,141.76372"
       orientation="0,-1"
       id="guide76216" />
    <sodipodi:guide
       position="102.49534,161.12786"
       orientation="1,0"
       id="guide76384" />
    <sodipodi:guide
       position="123.24429,156.17488"
       orientation="1,0"
       id="guide76386" />
    <sodipodi:guide
       position="97.274637,162.24339"
       orientation="1,0"
       id="guide76397" />
  </sodipodi:namedview>
  <defs
     id="defs75783" />
  <g
     inkscape:label="Слой 1"
     inkscape:groupmode="layer"
     id="layer1"
     style="display:none">
    <g
       id="g95744">
      <path
         id="rect1350-9-3-7-3-6"
         style="fill:#332a09;fill-opacity:1;stroke-width:0.706728"
         d="m 97.325077,124.68097 a 7.3465706,7.9 0 0 1 5.259773,7.14168 h 0.008 v -7.13445 c 0,-0.0289 -0.0344,-0.0522 -0.0769,-0.0522 h -5.11553 c -0.03878,0 -0.06984,0.0197 -0.07542,0.045 z" />
      <path
         id="rect848-7-5-5"
         style="fill:#332a09;fill-opacity:1;stroke-width:2.2712"
         d="m 387.04297,471.06445 c -0.0827,0 -0.14844,0.23367 -0.14844,0.52344 v 13.92578 c 0,0.28977 0.0657,0.52149 0.14844,0.52149 h 0.59961 v 60.52539 h -0.0762 a 31.716788,32.917923 0 0 1 0.0625,0.95312 31.716788,32.917923 0 0 1 -11.33789,25.21289 15.414803,16.456775 0 0 0 0.46875,-3.98633 15.414803,16.456775 0 0 0 -15.41407,-16.45703 15.414803,16.456775 0 0 0 -15.41601,16.45703 15.414803,16.456775 0 0 0 4.02929,11.08399 31.716788,32.917923 0 0 1 -0.004,0 31.716788,32.917923 0 0 0 0.01,0.008 15.414803,16.456775 0 0 0 4.21485,3.4668 31.716788,32.917923 0 0 0 17.73633,5.71484 31.716788,32.917923 0 0 0 31.68554,-31.50195 c 0.0189,-0.0227 0.0312,-0.0462 0.0312,-0.0742 v -1.3418 -70.06054 h 46.58789 V 586.5588 c 0,0.10496 0.082,0.18946 0.1836,0.18946 h 15.625 c 0.0398,0 0.0755,-0.015 0.10547,-0.0371 0.0476,0.0231 0.10485,0.0371 0.16796,0.0371 h 19.33399 c 0.14664,0 0.26399,-0.0743 0.28516,-0.16993 a 27.766566,29.858268 0 0 1 -19.70899,-25.01757 v -65.30664 a 27.766566,29.858268 0 0 1 19.70899,-25.01953 c -0.0212,-0.0956 -0.13852,-0.16993 -0.28516,-0.16993 h -19.33399 c -0.0631,0 -0.12033,0.0159 -0.16796,0.0391 -0.03,-0.0221 -0.0657,-0.0391 -0.10547,-0.0391 h -2.58008 z"
         transform="scale(0.26458333)" />
    </g>
  </g>
  <g
     inkscape:groupmode="layer"
     id="layer5"
     inkscape:label="Слой 2"
     style="display:none">
    <path
       id="rect1350-9-3-7-5-7"
       style="fill:#332a09;fill-opacity:1;stroke-width:0.706719"
       d="m 97.376457,124.60893 c -0.03878,0 -0.06987,0.0196 -0.07545,0.045 a 7.3464441,7.899926 0 0 1 5.221293,6.67654 v 8.62108 a 16.663171,13.294192 0 0 0 -6.845455,4.4214 16.663171,13.294192 0 0 1 6.845455,-3.09901 v 7.17056 a 7.3464441,7.899926 0 0 1 -5.221293,6.66103 c 0.0056,0.0254 0.03667,0.0454 0.07545,0.0454 h 5.115353 20.64542 c 0.0226,0 0.0408,-0.0618 0.0408,-0.13849 v -3.6845 c 0,-0.0325 -0.004,-0.0606 -0.009,-0.0842 0.006,-0.007 0.009,-0.0154 0.009,-0.0243 v -7.27338 a 7.3464441,7.899926 0 0 1 -5.16136,7.24393 h -11.26372 v -10.24115 h 6.17679 a 7.3464441,7.899926 0 0 1 3.21783,6.10345 h 0.008 v -6.17837 -0.97048 -7.27339 a 7.3464441,7.899926 0 0 1 -3.13929,6.17993 h -6.26308 v -10.24011 h 11.34693 a 7.3464441,7.899926 0 0 1 5.0704,7.07651 h 0.008 V 128.512 c 0,-0.006 -0.002,-0.0122 -0.005,-0.0176 0.003,-0.0191 0.005,-0.0398 0.005,-0.063 v -3.68448 c 0,-0.0767 -0.0174,-0.13798 -0.0393,-0.13798 h -20.21547 c -0.007,0 -0.0142,0.01 -0.0202,0.0216 h -0.33279 c -0.005,0 -0.009,0.002 -0.0134,0.004 -0.0135,-0.0149 -0.0374,-0.0247 -0.0651,-0.0247 z" />
  </g>
  <g
     inkscape:groupmode="layer"
     id="layer6"
     inkscape:label="Слой 3"
     style="display:none">
    <path
       id="rect848-7-5-57"
       style="fill:#332a09;fill-opacity:1;stroke-width:2.62576"
       d="m 376.76562,471.04492 c -0.0962,0 -0.17382,0.23367 -0.17382,0.52344 v 13.92383 c 0,0.22171 0.045,0.40995 0.10937,0.48633 -0.008,0.0182 -0.0137,0.0385 -0.0137,0.0586 v 26.96484 h 0.0312 A 27.766566,29.858268 0 0 1 396.58,486.01563 h 16.62304 v 75.78711 a 27.766566,29.858268 0 0 1 -19.6582,24.50782 c 0.0227,0.0956 0.13851,0.16992 0.28516,0.16992 h 19.33398 c 0.0497,0 0.0958,-0.009 0.13672,-0.0234 0.0258,0.0141 0.0546,0.0234 0.0859,0.0234 h 15.625 c 0.0348,0 0.0641,-0.0121 0.0918,-0.0293 0.0444,0.0187 0.0962,0.0293 0.15234,0.0293 h 19.33398 c 0.14665,0 0.26248,-0.0743 0.28516,-0.16992 a 27.766566,29.858268 0 0 1 -19.68164,-24.66602 v -75.62891 h 16.71094 a 27.766566,29.858268 0 0 1 19.86328,26.98633 h 0.0293 v -26.96484 c 0,-0.048 -0.0247,-0.0928 -0.0664,-0.12695 0.0438,-0.0948 0.0742,-0.24248 0.0742,-0.41797 v -13.92383 c 0,-0.28977 -0.0776,-0.52344 -0.17383,-0.52344 z"
       transform="scale(0.26458333)" />
  </g>
  <g
     inkscape:groupmode="layer"
     id="layer7"
     inkscape:label="Слой 4"
     style="display:none">
    <path
       id="rect1350-9-3-7-3-2-4-4"
       style="fill:#332a09;fill-opacity:1;stroke-width:0.706728"
       d="m 79.248672,170.40952 a 7.3465706,7.9 0 0 0 -5.25977,7.14168 h -0.008 v -7.13445 c 0,-0.0289 0.0344,-0.0522 0.0769,-0.0522 h 5.11561 c 0.0388,0 0.0698,0.0197 0.0754,0.045 z" />
    <path
       id="rect1350-9-3-7-3-2-4-4-9"
       style="fill:#332a09;fill-opacity:1;stroke-width:0.706728"
       d="m 83.414956,180.23425 a 7.3465706,7.9 0 0 1 -5.25977,-7.14168 h -0.008 v 7.13445 c 0,0.0289 0.0344,0.0522 0.0769,0.0522 h 5.11561 c 0.0388,0 0.0698,-0.0197 0.0754,-0.045 z" />
    <g
       id="g94366">
      <rect
         style="fill:#332a09;fill-opacity:1;stroke-width:0.697012"
         id="rect848-7-5-8"
         width="4.2311559"
         height="30.618999"
         x="102.49534"
         y="124.583"
         rx="0.048511047"
         ry="0.050145507" />
      <path
         id="rect1350-9-3-7-3-6-5"
         style="fill:#332a09;fill-opacity:1;stroke-width:0.706728"
         d="m 97.39953,124.62797 a 7.3465706,7.9 0 0 1 5.25977,7.14168 h 0.008 v -7.13445 c 0,-0.0289 -0.0344,-0.0522 -0.0769,-0.0522 h -5.11561 c -0.0388,0 -0.0698,0.0197 -0.0754,0.045 z" />
      <path
         id="rect1350-9-3-7-3-6-2"
         style="fill:#332a09;fill-opacity:1;stroke-width:0.706728"
         d="m 97.26516,155.15703 a 7.3465706,7.9 0 0 0 5.25978,-7.14168 h 0.008 v 7.13445 c 0,0.0289 -0.0344,0.0522 -0.0769,0.0522 H 97.3404 c -0.0388,0 -0.0698,-0.0197 -0.0754,-0.045 z" />
      <path
         id="rect1350-9-3-7-3-2-4"
         style="fill:#332a09;fill-opacity:1;stroke-width:0.706728"
         d="m 124.03267,124.62797 a 7.3465706,7.9 0 0 0 -5.25978,7.14168 h -0.008 v -7.13445 c 0,-0.0289 0.0344,-0.0522 0.0769,-0.0522 h 5.11561 c 0.0388,0 0.0698,0.0197 0.0754,0.045 z" />
      <path
         id="rect1350-9-3-7-3-2-4-2"
         style="fill:#332a09;fill-opacity:1;stroke-width:0.706728"
         d="m 126.71677,155.15703 a 7.3465706,7.9 0 0 1 -5.25977,-7.14168 h -0.008 v 7.13445 c 0,0.0289 0.0344,0.0522 0.0769,0.0522 h 5.11562 c 0.0388,0 0.0698,-0.0197 0.0754,-0.045 z" />
      <path
         id="rect1350-9-3-7-3-2-4-2-0"
         style="fill:#332a09;fill-opacity:1;stroke-width:0.706728"
         d="m 116.18123,155.15703 a 7.3465706,7.9 0 0 0 5.25977,-7.14168 h 0.008 v 7.13445 c 0,0.0289 -0.0344,0.0522 -0.0769,0.0522 h -5.11561 c -0.0388,0 -0.0698,-0.0197 -0.0754,-0.045 z" />
      <path
         id="rect1350-9-3-7-3-2-4-2-07"
         style="fill:#332a09;fill-opacity:1;stroke-width:0.706728"
         d="m 113.49711,124.62797 a 7.3465706,7.9 0 0 1 5.25978,7.14168 h 0.008 v -7.13445 c 0,-0.0289 -0.0344,-0.0522 -0.0769,-0.0522 h -5.11561 c -0.0388,0 -0.0698,0.0197 -0.0754,0.045 z" />
      <path
         id="path15563-1-5"
         style="fill:#332a09;fill-opacity:1;stroke:none;stroke-width:0.454407;stroke-opacity:1"
         d="m 117.05481,124.583 a 13.731926,13.126826 0 0 1 -13.09871,12.41785 v 3.14709 a 15.49243,14.578222 0 0 0 1.28647,0.0863 15.49243,14.578222 0 0 0 15.49239,-14.57792 15.49243,14.578222 0 0 0 -0.0701,-1.07332 z" />
      <path
         id="path15563-1-5-3"
         style="fill:#332a09;fill-opacity:1;stroke:none;stroke-width:1.71744;stroke-opacity:1"
         d="m 407.06641,529.31445 a 58.554066,55.098792 0 0 0 -4.86133,0.32617 v 11.89454 a 51.900193,49.613201 0 0 1 49.35547,45.18554 h 13.94336 a 58.554066,55.098792 0 0 0 0.11718,-2.30859 58.554066,55.098792 0 0 0 -58.55468,-55.09766 z"
         transform="scale(0.26458333)" />
      <path
         id="path1646-3"
         style="fill:#332a09;fill-opacity:1;stroke-width:1.31191"
         d="m 106.4166,136.834 a 16.663458,18.362285 0 0 0 -10.76834,7.401 16.663458,18.362285 0 0 1 10.76834,-4.97421 z" />
    </g>
  </g>
  <g
     inkscape:groupmode="layer"
     id="layer8"
     inkscape:label="Слой 5"
     style="display:none">
    <g
       id="g94674">
      <rect
         style="fill:#332a09;fill-opacity:1;stroke-width:0.698149"
         id="rect848-7-8-9"
         width="4.2311559"
         height="30.719"
         x="97.108467"
         y="124.583"
         rx="0.048511047"
         ry="0.050309282" />
      <path
         id="rect848-7-8-9-8"
         style="fill:#332a09;fill-opacity:1;stroke-width:0.798739"
         d="m 118.53587,124.58302 -20.440726,27.03504 c -0.0214,0.0283 -0.0218,0.0655 -9.9e-4,0.0837 l 3.207756,2.80448 c 0.0208,0.0182 0.055,0.0102 0.0764,-0.0181 L 123.98929,124.583 Z" />
      <path
         id="rect1350-9-3-7-5-75-6-63"
         style="fill:#332a09;fill-opacity:1;stroke-width:0.706728"
         d="m 92.128804,124.62797 a 7.3465706,7.9 0 0 1 5.25977,7.14168 h 0.008 v -7.13445 c 0,-0.0289 -0.0344,-0.0522 -0.0769,-0.0522 h -5.11561 c -0.0388,0 -0.0698,0.0197 -0.0754,0.045 z" />
      <path
         id="rect1350-9-3-7-5-75-1-9"
         style="fill:#332a09;fill-opacity:1;stroke-width:0.706728"
         d="m 106.55156,124.62797 a 7.3465706,7.9 0 0 0 -5.25977,7.14168 h -0.008 v -7.13445 c 0,-0.0289 0.0344,-0.0522 0.0769,-0.0522 h 5.11561 c 0.0388,0 0.0698,0.0197 0.0754,0.045 z" />
      <path
         id="rect1350-9-3-7-5-75-6-6-4"
         style="fill:#332a09;fill-opacity:1;stroke-width:0.706728"
         d="m 92.128804,155.23631 a 7.3465706,7.9 0 0 0 5.25977,-7.14168 h 0.008 v 7.13445 c 0,0.0289 -0.0344,0.0522 -0.0769,0.0522 h -5.11562 c -0.0388,0 -0.0698,-0.0197 -0.0754,-0.045 z" />
      <rect
         style="fill:#332a09;fill-opacity:1;stroke-width:0.697012"
         id="rect848-7-8-9-0"
         width="4.2311559"
         height="30.618999"
         x="119.01314"
         y="124.66228"
         rx="0.048511047"
         ry="0.050145507" />
      <path
         id="rect1350-9-3-7-5-75-1-9-5"
         style="fill:#332a09;fill-opacity:1;stroke-width:0.706728"
         d="m 128.4558,124.62797 a 7.3465706,7.9 0 0 0 -5.25977,7.14168 h -0.008 v -7.13445 c 0,-0.0289 0.0344,-0.0522 0.0769,-0.0522 h 5.11561 c 0.0388,0 0.0698,0.0197 0.0754,0.045 z" />
      <path
         id="rect1350-9-3-7-5-75-6-6-4-7"
         style="fill:#332a09;fill-opacity:1;stroke-width:0.706728"
         d="m 113.9884,155.23631 a 7.3465706,7.9 0 0 0 5.25978,-7.14168 h 0.008 v 7.13445 c 0,0.0289 -0.0344,0.0522 -0.0769,0.0522 h -5.11561 c -0.0388,0 -0.0698,-0.0197 -0.0754,-0.045 z" />
      <path
         id="rect1350-9-3-7-5-75-1-6-7-3"
         style="fill:#332a09;fill-opacity:1;stroke-width:0.706728"
         d="m 128.4558,155.23631 a 7.3465706,7.9 0 0 1 -5.25977,-7.14168 h -0.008 v 7.13445 c 0,0.0289 0.0344,0.0522 0.0769,0.0522 h 5.11561 c 0.0388,0 0.0698,-0.0197 0.0754,-0.045 z" />
    </g>
  </g>
  <g
     inkscape:groupmode="layer"
     id="layer9"
     inkscape:label="Слой 6"
     style="display:none">
    <g
       id="g95221">
      <path
         id="rect1350-9-3-7-5-75"
         style="fill:#332a09;fill-opacity:1;stroke-width:0.706728"
         d="m 97.194886,124.63073 a 7.3465706,7.9 0 0 1 5.259774,7.14168 h 0.008 v -7.13445 c 0,-0.0289 -0.0344,-0.0522 -0.0769,-0.0522 h -5.115611 c -0.03878,0 -0.06984,0.0197 -0.07542,0.045 z" />
      <path
         id="rect1350-9-3-7-5-75-6-1"
         style="fill:#332a09;fill-opacity:1;stroke-width:0.706728"
         d="m 97.194886,155.19404 a 7.3465706,7.9 0 0 0 5.259774,-7.14169 h 0.008 v 7.13445 c 0,0.0289 -0.0344,0.0522 -0.0769,0.0522 h -5.115611 c -0.03878,0 -0.06984,-0.0197 -0.07542,-0.045 z" />
      <rect
         style="fill:#332a09;fill-opacity:1;stroke-width:0.697012"
         id="rect848-7-7"
         width="4.2311559"
         height="30.618999"
         x="119.01096"
         y="124.58576"
         rx="0.048511047"
         ry="0.050145507" />
      <rect
         style="fill:#332a09;fill-opacity:1;stroke-width:0.697012"
         id="rect848-7-8"
         width="4.2311559"
         height="30.618999"
         x="102.40846"
         y="124.58576"
         rx="0.048511047"
         ry="0.050145507" />
      <rect
         style="fill:#332a09;fill-opacity:1;stroke-width:1.06656"
         id="rect1122-1-3-1-8"
         width="20.294577"
         height="3.961"
         x="102.59042"
         y="137.98598"
         rx="0.039512008"
         ry="0.13838941" />
      <path
         id="rect1350-9-3-7-5-75-6"
         style="fill:#332a09;fill-opacity:1;stroke-width:0.706728"
         d="m 114.20901,124.63073 a 7.3465706,7.9 0 0 1 5.25977,7.14168 h 0.008 v -7.13445 c 0,-0.0289 -0.0344,-0.0522 -0.0769,-0.0522 h -5.11561 c -0.0388,0 -0.0698,0.0197 -0.0754,0.045 z" />
      <path
         id="rect1350-9-3-7-5-75-1"
         style="fill:#332a09;fill-opacity:1;stroke-width:0.706728"
         d="m 128.10262,124.63073 a 7.3465706,7.9 0 0 0 -5.25978,7.14168 h -0.008 v -7.13445 c 0,-0.0289 0.0344,-0.0522 0.0769,-0.0522 h 5.11561 c 0.0388,0 0.0698,0.0197 0.0754,0.045 z" />
      <path
         id="rect1350-9-3-7-5-75-1-8"
         style="fill:#332a09;fill-opacity:1;stroke-width:0.706728"
         d="m 111.61764,155.19404 a 7.3465706,7.9 0 0 1 -5.25977,-7.14169 h -0.008 v 7.13445 c 0,0.0289 0.0344,0.0522 0.0769,0.0522 h 5.11561 c 0.0388,0 0.0698,-0.0197 0.0754,-0.045 z" />
      <path
         id="rect1350-9-3-7-5-75-6-6"
         style="fill:#332a09;fill-opacity:1;stroke-width:0.706728"
         d="m 114.20901,155.19403 a 7.3465706,7.9 0 0 0 5.25977,-7.14168 h 0.008 v 7.13445 c 0,0.0289 -0.0344,0.0522 -0.0769,0.0522 h -5.11562 c -0.0388,0 -0.0698,-0.0197 -0.0754,-0.045 z" />
      <path
         id="rect1350-9-3-7-5-75-1-6"
         style="fill:#332a09;fill-opacity:1;stroke-width:0.706728"
         d="m 128.1026,155.19403 a 7.3465706,7.9 0 0 1 -5.25977,-7.14168 h -0.008 v 7.13445 c 0,0.0289 0.0344,0.0522 0.0769,0.0522 h 5.11562 c 0.0388,0 0.0698,-0.0197 0.0754,-0.045 z" />
      <path
         id="rect1350-9-3-7-5-75-2"
         style="fill:#332a09;fill-opacity:1;stroke-width:0.706728"
         d="m 111.61764,124.63073 a 7.3465706,7.9 0 0 0 -5.25977,7.14169 h -0.008 v -7.13446 c 0,-0.0289 0.0344,-0.0522 0.0769,-0.0522 h 5.11561 c 0.0388,0 0.0698,0.0197 0.0754,0.045 z" />
    </g>
  </g>
  <g
     inkscape:groupmode="layer"
     id="layer10"
     inkscape:label="Слой 7"
     style="display:inline">
    <path
       id="rect46661"
       style="opacity:0.998043;fill:#332a09;fill-opacity:1;stroke:none;stroke-width:0.442131;stroke-opacity:1"
       d="m 108.83502,124.63076 c -3.63219,0 -6.55602,1.86512 -6.55602,4.18212 v 22.17776 c 0,2.317 2.92383,4.18212 6.55602,4.18212 h 7.79397 c 3.63218,0 6.55601,-1.86512 6.55601,-4.18212 v -22.17776 c 0,-2.317 -2.92383,-4.18212 -6.55601,-4.18212 z m 3.89698,1.94126 c 2.03657,0 3.67618,0.99061 3.67618,2.2211 v 23.02927 c 0,1.23048 -1.63961,2.22109 -3.67618,2.22109 -2.03656,0 -3.67617,-0.99061 -3.67617,-2.22109 v -23.02927 c 0,-1.23049 1.63961,-2.2211 3.67617,-2.2211 z" />
  </g>
</svg>
