<?xml version="1.0" encoding="UTF-8" standalone="no"?>
<svg
   enable-background="new 0 0 64 64"
   version="1.1"
   viewBox="0 0 99.093506 85.506111"
   xml:space="preserve"
   id="svg7"
   sodipodi:docname="logo.svg"
   inkscape:version="1.1 (c68e22c387, 2021-05-23)"
   width="99.093506"
   height="85.506111"
   inkscape:export-filename="D:\OSPanel\domains\letkino-22\src\img\logo.png"
   inkscape:export-xdpi="96"
   inkscape:export-ydpi="96"
   xmlns:inkscape="http://www.inkscape.org/namespaces/inkscape"
   xmlns:sodipodi="http://sodipodi.sourceforge.net/DTD/sodipodi-0.dtd"
   xmlns="http://www.w3.org/2000/svg"
   xmlns:svg="http://www.w3.org/2000/svg"><defs
     id="defs11" /><sodipodi:namedview
     id="namedview9"
     pagecolor="#ffffff"
     bordercolor="#666666"
     borderopacity="1.0"
     inkscape:pageshadow="2"
     inkscape:pageopacity="0.0"
     inkscape:pagecheckerboard="0"
     showgrid="false"
     inkscape:zoom="2.298097"
     inkscape:cx="52.65226"
     inkscape:cy="38.510124"
     inkscape:window-width="1920"
     inkscape:window-height="1017"
     inkscape:window-x="-8"
     inkscape:window-y="-8"
     inkscape:window-maximized="1"
     inkscape:current-layer="svg7" /><g
     id="g5560"
     transform="matrix(-0.57018734,0,0,0.61668369,109.71996,-50.017675)"
     inkscape:export-filename="D:\OSPanel\domains\letkino-22\src\img\g5560.png"
     inkscape:export-xdpi="96"
     inkscape:export-ydpi="96"><path
       inkscape:export-ydpi="96"
       inkscape:export-xdpi="96"
       inkscape:connector-curvature="0"
       id="path5413"
       d="m 89.485508,183.2874 c 0,0 -1.485514,1.92243 -0.524298,3.49533 0.961215,1.57289 4.194389,4.28177 4.543922,5.59252 0.349533,1.31075 0.08738,3.58271 0.961215,4.54392 0.873832,0.96122 0.873832,2.44673 5.06822,1.48552 4.194393,-0.96122 10.049063,-1.39813 10.049063,-1.39813 0,0 1.74766,0.43691 4.45654,0.5243 2.70887,0.0874 4.28177,-2.0972 4.28177,-2.0972 0,0 0.5243,-1.0486 0.34953,-2.00981 -0.17476,-0.96122 0.0874,-2.88365 0.96122,-4.80607 0.87383,-1.92243 1.39813,-3.49533 1.31075,-4.28178 -0.0874,-0.78645 -1.5729,-3.49533 -2.18458,-3.93224 -0.61169,-0.43692 -1.66028,-0.87383 -3.05841,-0.43692 -1.39813,0.43692 -7.16542,2.0972 -7.16542,2.0972 0,0 -2.62149,0.87383 -5.41775,0.43692 -2.79626,-0.43692 -7.777101,-1.48552 -9.262615,-1.31075 -1.485513,0.17477 -4.194389,1.66028 -4.369157,2.09719 z"
       style="display:inline;fill:#030000;fill-opacity:1;stroke:none;stroke-width:0.264583px;stroke-linecap:butt;stroke-linejoin:miter;stroke-opacity:1" /><path
       inkscape:export-ydpi="96"
       inkscape:export-xdpi="96"
       sodipodi:nodetypes="cccccccccccc"
       inkscape:connector-curvature="0"
       id="path1391"
       transform="scale(0.26458333)"
       d="m 366.64453,334.12695 c -8.22716,0.3962 -16.42946,1.2058 -24.57617,2.42578 -134.9041,20.20363 -227.99621,146.4982 -207.96094,282.13282 20.03489,135.63445 145.61504,229.28166 280.53711,209.20117 l 0.44336,-0.0664 C 533.85724,809.79416 622.51723,711.13733 625.18945,590.40972 618.1883,695.95554 534.61795,786.48551 426.86719,802.87109 l -0.41992,0.0625 C 298.70126,821.9942 179.80008,733.10422 160.83008,604.35938 141.86041,475.61405 230.00127,355.73433 357.73047,336.55664 c 11.44717,-1.61935 22.9977,-2.3812 34.55664,-2.2793 -8.53917,-0.49639 -17.09823,-0.54659 -25.64258,-0.15039 z"
       style="opacity:1;fill:#1c7d34;fill-opacity:1;stroke:none;stroke-width:23.687;stroke-linecap:square;stroke-linejoin:miter;stroke-miterlimit:0;stroke-dasharray:none;stroke-opacity:1;paint-order:stroke fill markers" /><path
       inkscape:export-ydpi="96"
       inkscape:export-xdpi="96"
       id="path5119-4"
       d="m 144.08831,158.74895 c 0,0 3.66261,3.21127 1.99937,8.95398 a 10.442284,13.588077 19.641785 0 0 -0.68937,2.21175 10.442284,13.588077 19.641785 0 0 7.11481,14.72055 16.864726,10.565045 70.537882 0 0 -2.14612,-17.95653 17.131968,10.769338 65.138877 0 1 3.87883,17.971 19.81462,10.112429 79.396718 0 0 0.0196,0.0212 15.154625,10.52929 57.387422 0 0 -1.84071,-19.08721 15.154625,10.52929 57.387422 0 0 -5.70249,-4.92528 z"
       style="opacity:1;fill:#1c7d34;fill-opacity:1;stroke:none;stroke-width:6.1;stroke-linecap:square;stroke-linejoin:miter;stroke-miterlimit:0;stroke-dasharray:none;stroke-opacity:1;paint-order:stroke fill markers"
       inkscape:connector-curvature="0" /><path
       inkscape:export-ydpi="96"
       inkscape:export-xdpi="96"
       id="path5119-42"
       d="m 130.42284,86.952931 c 0,0 -5.07696,2.9262 -10.95045,-1.23213 a 16.362697,12.592157 39.337368 0 0 -2.24308,-1.65732 16.362697,12.592157 39.337368 0 0 -19.496822,2.35126 12.773989,20.254691 89.494747 0 0 21.232982,4.60171 13.020067,20.577118 84.011762 0 1 -21.925709,-2.62613 23.800938,12.224994 8.4563037 0 0 -0.03173,0.0141 12.72593,18.20775 76.09566 0 0 22.398019,5.3952 12.72593,18.20775 76.09566 0 0 7.81995,-4.58521 z"
       style="opacity:1;fill:#1c7d34;fill-opacity:1;stroke:none;stroke-width:6.1;stroke-linecap:square;stroke-linejoin:miter;stroke-miterlimit:0;stroke-dasharray:none;stroke-opacity:1;paint-order:stroke fill markers"
       inkscape:connector-curvature="0" /><path
       inkscape:export-ydpi="96"
       inkscape:export-xdpi="96"
       inkscape:connector-curvature="0"
       id="path5331"
       d="m 115.87004,107.90288 c 0,0 4.01963,-1.39813 8.21402,-0.5243 4.19439,0.87383 3.84486,4.54393 6.64112,10.83551 2.79626,6.29159 10.66074,5.59253 10.66074,5.59253 l 7.86448,-2.44673 c 0,0 12.23364,-2.6215 22.02055,-1.74767 9.78692,0.87383 16.0785,1.74767 17.6514,2.97103 1.5729,1.22337 3.67009,1.74766 3.49532,4.19439 -0.17476,2.44673 -2.44673,5.76729 -2.44673,5.76729 0,0 -4.36915,4.71869 -5.76728,6.64112 -1.39813,1.92243 -5.59252,4.36915 -8.21402,4.89345 -2.62149,0.5243 -10.66074,1.74767 -14.85513,1.0486 -4.19439,-0.69907 -8.03925,-1.39813 -9.26261,-3.32056 -1.22337,-1.92243 -7.51495,-5.94205 -10.83551,-6.11682 -3.32056,-0.17477 -3.84486,0 -2.79626,1.74766 1.04859,1.74767 5.41775,4.89346 4.19439,7.34019 -1.22337,2.44673 -5.24299,6.46635 -5.76729,8.03925 -0.5243,1.57289 -1.22336,5.59252 -1.0486,7.51495 0.17477,1.92243 -0.69906,8.03925 -2.27196,11.01027 -1.5729,2.97103 -4.36916,9.08785 -4.89346,11.01028 -0.52429,1.92243 -1.41459,2.19031 0.74803,8.18387 2.16262,5.99355 2.8423,5.6846 2.22441,7.10576 -0.61789,1.42115 -3.15125,2.34799 -6.3025,1.97725 -3.15125,-0.37074 -5.1285,-1.1122 -4.38703,-1.91547 0.74147,-0.80326 3.21304,-0.0618 4.26345,-0.98862 1.05042,-0.92684 1.97726,-0.67968 1.91547,-3.64557 -0.0618,-2.96588 -0.74147,-7.22933 -2.53336,-9.7009 -1.79189,-2.47157 -3.76914,-4.94314 -3.95451,-9.14481 -0.18537,-4.20166 -0.49431,-12.72857 -0.92684,-13.77899 -0.43252,-1.05041 -0.80326,-3.02767 -1.48294,-3.89272 -0.67968,-0.86505 -0.98862,-1.85368 -2.34799,-2.71873 -1.35936,-0.86504 -1.60652,-0.98862 -1.79189,-1.6683 -0.18536,-0.67968 0.6179,-2.53336 0.6179,-2.53336 l 1.29757,-2.53336 c 0,0 2.10083,-3.64556 2.22441,-3.89272 0.12358,-0.24715 1.42115,-2.65693 1.54473,-3.21304 0.12358,-0.5561 1.05042,-2.53335 1.97726,-3.02767 0.92683,-0.49431 2.8423,-0.86505 4.07809,-0.61789 1.23578,0.24716 4.88134,1.42115 5.56102,0.80326 0.67968,-0.61789 0.67968,-1.23578 0.43253,-1.66831 -0.24716,-0.43252 -1.54473,-2.8423 -1.54473,-2.8423 l -3.15125,-4.26346 c 0,0 -1.85368,-1.91546 -1.54473,-4.81956 0.30894,-2.90409 0.0618,-4.88135 -0.24716,-6.36429 -0.30895,-1.48294 -0.92684,-4.07808 -1.91546,-5.06671 -0.98863,-0.98863 -7.38416,-3.87519 -7.33765,-4.2238 z"
       style="fill:#000000;fill-opacity:1;stroke:none;stroke-width:0.264583px;stroke-linecap:butt;stroke-linejoin:miter;stroke-opacity:1" /><path
       inkscape:export-ydpi="96"
       inkscape:export-xdpi="96"
       inkscape:connector-curvature="0"
       id="path5333"
       d="m 89.656145,184.66721 c 0,0 -0.247156,1.54473 0,2.16263 0.247158,0.61789 1.730099,2.90409 2.224413,3.15124 0.494313,0.24716 2.22441,2.40978 2.40978,2.78052 0.185367,0.37073 0.494313,1.05041 0.494313,1.91546 0,0.86505 0.370734,2.28621 0.67968,2.65694 0.308946,0.37073 0.741471,1.35936 2.40978,1.54473 1.668309,0.18537 4.078089,0 5.313869,-0.37073 1.23579,-0.37074 5.25209,-0.98863 5.7464,-0.98863 0.49431,0 2.53335,0.12358 5.37566,0.24715 2.8423,0.12358 3.95451,-0.37073 4.51061,-1.35936 0.5561,-0.98863 0.86505,-1.91547 0.80326,-2.71872 -0.0618,-0.80326 -0.43252,-1.97726 0.5561,-4.07809 0.98863,-2.10083 1.7301,-3.15125 1.60652,-4.26346 -0.12357,-1.1122 -0.37073,-2.2862 -0.74147,-2.8423 -0.37073,-0.5561 -1.73009,-2.03904 -2.2862,-2.10083 -0.5561,-0.0618 -2.34799,-0.0618 -2.90409,0.24715 -0.5561,0.30895 -5.99355,1.79189 -6.48787,1.91547 -0.49431,0.12358 -2.65693,0.74147 -4.51061,0.5561 -1.85368,-0.18537 -5.931762,-1.05041 -6.364287,-1.1122 -0.432525,-0.0618 -4.078089,-0.49432 -5.190294,0 -1.112205,0.49431 -3.027672,0.61789 -3.645564,2.65693 z"
       style="fill:none;fill-opacity:1;stroke:none;stroke-width:0.264583px;stroke-linecap:butt;stroke-linejoin:miter;stroke-opacity:1" /><path
       inkscape:export-ydpi="96"
       inkscape:export-xdpi="96"
       inkscape:connector-curvature="0"
       id="path5371"
       d="m 97.213742,200.70378 c 0,0 -0.08738,1.09229 1.791356,2.22827 1.878742,1.13598 3.888552,1.5292 5.286682,0.91752 1.39813,-0.61168 3.36425,-1.22336 4.71869,-1.26706 1.35444,-0.0437 4.28177,0.61169 5.81097,-0.17476 1.52921,-0.78645 2.53412,-1.79136 2.0972,-2.31565 -0.43691,-0.52431 -1.09229,-0.87384 -2.0535,-0.91753 -0.96122,-0.0437 -3.71379,-0.43691 -4.98084,-0.21846 -1.26706,0.21846 -4.28177,0.65538 -5.33037,0.83014 -1.0486,0.17477 -3.58271,0.78645 -4.1507,0.61169 -0.567994,-0.17477 -2.140889,-0.17477 -2.446732,-0.17477 -0.305839,0 -0.830138,0.26215 -0.742756,0.48061 z"
       style="fill:#000000;fill-opacity:1;stroke:none;stroke-width:0.264583px;stroke-linecap:butt;stroke-linejoin:miter;stroke-opacity:1" /><path
       inkscape:export-ydpi="96"
       inkscape:export-xdpi="96"
       sodipodi:nodetypes="cccccscssscccccccccccccsscsccsccssccccscccccsscccscssccsccsscccc"
       inkscape:connector-curvature="0"
       id="path5392"
       d="m 89.656144,114.22751 c 0,0 -0.865048,1.48294 -1.359363,2.90409 -0.494313,1.42116 -1.050415,3.27483 -1.730098,4.07809 -0.67968,0.80326 -2.471568,2.78052 -3.151248,3.21304 -0.679683,0.43253 -2.656938,1.79189 -3.830931,3.08946 -1.173996,1.29757 -2.471568,2.65694 -2.718726,3.95451 -0.247158,1.29757 -0.494313,2.16262 -0.06179,2.78052 0.432522,0.61789 0.308946,1.35936 2.22441,0.74147 1.915467,-0.61789 3.274827,-1.174 4.448823,-0.49432 1.173996,0.67968 2.904093,2.47157 3.707353,4.26346 0.803259,1.79189 5.190294,11.55458 5.190294,11.55458 0,0 0.988626,1.85368 0.494313,2.8423 -0.494313,0.98863 -1.54473,1.66831 -2.347989,2.03905 -0.80326,0.37073 -2.039044,0.49431 -2.533359,1.48294 -0.494313,0.98863 -0.494313,1.1122 -0.370735,2.53336 0.123579,1.42115 0.247158,3.27483 0.06179,4.94313 -0.185367,1.66831 -0.432523,10.62775 -0.432523,10.62775 0,0 -0.123579,7.60007 -0.617892,10.3188 -0.494315,2.71872 -0.803261,7.22933 -0.803261,7.22933 0,0 0,8.21797 7.167549,6.85861 2.160147,-0.31616 -2.758628,0.51291 0,-0.0618 0,0 -0.67968,1.29757 -2.162622,1.60652 -1.482942,0.30894 -4.75777,0.24715 -5.62282,-0.6179 -0.865047,-0.86505 -2.100831,-2.2862 -2.100831,-5.37566 0,-3.08946 0.06179,-4.88135 0.247155,-5.80818 0.185367,-0.92684 0.494313,-4.81956 0.432525,-5.56103 -0.06179,-0.74147 -0.432525,-3.21304 -0.926838,-4.0163 -0.494313,-0.80326 -3.336618,-5.80819 -3.95451,-6.98218 -0.617892,-1.174 -2.100831,-3.76914 -2.595147,-6.24071 -0.494313,-2.47157 -0.741471,-3.58378 -0.741471,-4.75777 0,-1.174 0.06179,-3.15125 -0.123576,-4.44882 -0.18537,-1.29758 -0.432525,-2.96589 -1.112208,-3.70736 -0.67968,-0.74147 -3.213039,-3.27483 -3.398406,-3.83093 -0.185367,-0.5561 -1.050417,-2.10083 -0.988626,-3.15125 0.06179,-1.05041 0.308946,-2.59514 0.741471,-3.3984 0.432522,-0.80326 1.482939,-2.78052 1.668309,-3.15125 0.185367,-0.37074 1.050414,-1.97726 1.050414,-1.97726 0,0 0.370737,-1.23578 -0.494313,-0.92684 -0.865047,0.30895 -3.707352,1.174 -4.819557,1.85368 -1.112206,0.67968 -6.549658,2.53336 -6.920392,2.59515 -0.370737,0.0618 -8.279754,1.85367 -11.122059,2.16262 -2.842302,0.30894 -11.369214,1.23578 -14.273308,-1.35936 -2.904093,-2.59515 -4.63419,-5.56103 -4.63419,-5.56103 l -3.769143,-5.99356 c 0,0 -2.656935,-3.46019 -3.521984,-4.26345 -0.865049,-0.80326 -2.904093,-3.08946 -3.521985,-3.95451 -0.617892,-0.86505 -1.482941,-2.59515 -1.54473,-3.33662 -0.06179,-0.74147 -1.173995,-3.58377 3.830931,-4.81956 5.004926,-1.23578 11.060267,-0.5561 11.060267,-0.5561 0,0 8.217967,1.23578 8.835859,1.54473 0.617892,0.30895 10.009851,3.89272 10.009851,3.89272 0,0 6.982182,3.83093 8.156176,4.75777 1.173995,0.92684 7.90902,7.16755 13.593627,1.23578 5.684607,-5.93176 7.538283,-8.89764 7.538283,-8.89764 l 2.965882,-3.76914 c 0,0 4.943138,-5.62282 9.330171,-6.54966 4.387035,-0.92684 8.156174,-0.43253 8.156174,-0.43253 0,0 3.95451,0.92684 5.56103,0.98863 1.60652,0.0618 5.25209,0.86505 5.25209,1.29758 0,0.43252 -1.35937,0.49431 -2.16263,0.49431 -0.80326,0 -5.49924,0.12358 -6.42607,-0.0618 -0.92684,-0.18537 -4.44883,-0.0618 -6.426084,0.43253 -1.977255,0.49431 -6.17892,1.79188 -8.403333,5.74639 z"
       style="fill:#000000;fill-opacity:1;stroke:none;stroke-width:0.264583px;stroke-linecap:butt;stroke-linejoin:miter;stroke-opacity:1" /><path
       inkscape:export-ydpi="96"
       inkscape:export-xdpi="96"
       inkscape:connector-curvature="0"
       id="path5394"
       d="m 94.166758,184.66721 c 0,0 -0.494316,0.12358 0.741471,1.11221 1.235784,0.98862 1.297572,1.05042 1.421151,2.40978 0.123579,1.35936 -0.06179,3.15125 0.617892,3.27483 0.67968,0.12357 1.359363,-0.30895 1.915464,-1.05042 0.556104,-0.74147 0.926838,-1.29758 0.556104,-1.7301 -0.370734,-0.43252 -2.718726,-2.90409 -3.274827,-3.33662 -0.556104,-0.43252 -1.7301,-1.48294 -1.977255,-0.67968 z"
       style="fill:#fffbfb;fill-opacity:1;stroke:none;stroke-width:0.264583px;stroke-linecap:butt;stroke-linejoin:miter;stroke-opacity:1" /><path
       inkscape:export-ydpi="96"
       inkscape:export-xdpi="96"
       inkscape:connector-curvature="0"
       id="path5394-2"
       d="m 117.87055,182.75842 c 0,0 0.5086,0.0308 -0.52497,1.2293 -1.03356,1.19845 -1.08298,1.27053 -0.95522,2.6295 0.12775,1.35898 0.63855,3.0865 -0.007,3.33261 -0.64551,0.24609 -1.39296,-0.0545 -2.07559,-0.68141 -0.68263,-0.62693 -1.14904,-1.10564 -0.8639,-1.59881 0.28515,-0.49316 2.14016,-3.35334 2.60753,-3.8805 0.46737,-0.52715 1.42887,-1.77502 1.81911,-1.03069 z"
       style="opacity:1;fill:#fffbfb;fill-opacity:1;stroke:none;stroke-width:0.264583px;stroke-linecap:butt;stroke-linejoin:miter;stroke-opacity:1" /><path
       inkscape:export-ydpi="96"
       inkscape:export-xdpi="96"
       sodipodi:open="true"
       sodipodi:end="1.4220088"
       sodipodi:start="1.4238256"
       sodipodi:ry="3.8996952"
       sodipodi:rx="2.6092279"
       sodipodi:cy="148.0609"
       sodipodi:cx="79.150757"
       sodipodi:type="arc"
       id="path5438"
       style="opacity:0;fill:#fffefe;fill-opacity:1;stroke:none;stroke-width:6.1;stroke-linecap:square;stroke-linejoin:miter;stroke-miterlimit:0;stroke-dasharray:none;stroke-opacity:1;paint-order:stroke fill markers"
       sodipodi:arc-type="arc"
       d="m 79.532858,151.91855 a 2.6092279,3.8996952 0 0 1 -2.963026,-3.28482 2.6092279,3.8996952 0 0 1 2.196479,-4.42997 2.6092279,3.8996952 0 0 1 2.965021,3.2808 2.6092279,3.8996952 0 0 1 -2.193785,4.43295" /><path
       inkscape:export-ydpi="96"
       inkscape:export-xdpi="96"
       sodipodi:open="true"
       sodipodi:end="1.4220088"
       sodipodi:start="1.4238256"
       sodipodi:ry="4.6203351"
       sodipodi:rx="2.3177068"
       sodipodi:cy="148.78154"
       sodipodi:cx="81.46846"
       sodipodi:type="arc"
       id="path5440"
       style="opacity:0;fill:#cab1b1;fill-opacity:1;stroke:none;stroke-width:6.1;stroke-linecap:square;stroke-linejoin:miter;stroke-miterlimit:0;stroke-dasharray:none;stroke-opacity:1;paint-order:stroke fill markers"
       sodipodi:arc-type="arc"
       d="m 81.80787,153.35206 a 2.3177068,4.6203351 0 0 1 -2.631976,-3.89183 2.3177068,4.6203351 0 0 1 1.951073,-5.2486 2.3177068,4.6203351 0 0 1 2.633749,3.88707 2.3177068,4.6203351 0 0 1 -1.948681,5.25213" /></g></svg>
