<?xml version="1.0" encoding="UTF-8" standalone="no"?>
<!-- Created with Inkscape (http://www.inkscape.org/) -->

<svg
   width="27.504mm"
   height="31.142002mm"
   viewBox="0 0 27.504 31.142002"
   version="1.1"
   id="svg3444"
   inkscape:version="1.1 (c68e22c387, 2021-05-23)"
   sodipodi:docname="e.svg"
   xmlns:inkscape="http://www.inkscape.org/namespaces/inkscape"
   xmlns:sodipodi="http://sodipodi.sourceforge.net/DTD/sodipodi-0.dtd"
   xmlns="http://www.w3.org/2000/svg"
   xmlns:svg="http://www.w3.org/2000/svg">
  <sodipodi:namedview
     id="namedview3446"
     pagecolor="#ffffff"
     bordercolor="#666666"
     borderopacity="1.0"
     inkscape:pageshadow="2"
     inkscape:pageopacity="0.0"
     inkscape:pagecheckerboard="0"
     inkscape:document-units="mm"
     showgrid="false"
     inkscape:zoom="5.9295174"
     inkscape:cx="72.771521"
     inkscape:cy="62.821302"
     inkscape:window-width="1920"
     inkscape:window-height="1017"
     inkscape:window-x="-8"
     inkscape:window-y="-8"
     inkscape:window-maximized="1"
     inkscape:current-layer="layer1" />
  <defs
     id="defs3441" />
  <g
     inkscape:label="Слой 1"
     inkscape:groupmode="layer"
     id="layer1"
     transform="translate(-79.77444,-84.01702)">
    <rect
       style="fill:#332a09;fill-opacity:1;stroke-width:0.720425"
       id="rect848-7"
       width="4.5498958"
       height="30.419001"
       x="85.388863"
       y="84.039017"
       rx="0.052165464"
       ry="0.049817961" />
    <rect
       style="fill:#332a09;fill-opacity:1;stroke-width:0.768322"
       id="rect1018-9-4"
       width="14.552087"
       height="1.839"
       x="85.497383"
       y="98.318436"
       rx="0.044164304"
       ry="0.064250961" />
    <rect
       style="fill:#332a09;fill-opacity:1;stroke-width:1.106"
       id="rect1122-1-3"
       width="21.8234"
       height="3.961"
       x="85.455437"
       y="110.49802"
       rx="0.042488515"
       ry="0.13838941" />
    <rect
       style="fill:#332a09;fill-opacity:1;stroke-width:1.106"
       id="rect1122-1-3-1"
       width="21.8234"
       height="3.961"
       x="85.45504"
       y="84.017021"
       rx="0.042488515"
       ry="0.13838941" />
    <path
       id="rect1350-9-3-7"
       style="fill:#332a09;fill-opacity:1;stroke-width:0.732864"
       d="m 79.77444,84.06199 a 7.9,7.9 0 0 1 5.656,7.14168 h 0.009 v -7.13445 c 0,-0.0289 -0.037,-0.0522 -0.0827,-0.0522 h -5.50098 c -0.0417,0 -0.0751,0.0197 -0.0811,0.045 z" />
    <path
       id="rect1350-9-3-7-6"
       style="fill:#332a09;fill-opacity:1;stroke-width:0.732864"
       d="m 85.43944,107.13324 a 7.9,7.9 0 0 1 -5.66477,7.28069 c 0.006,0.0253 0.0394,0.045 0.0811,0.045 h 5.50095 c 0.0457,0 0.0827,-0.0233 0.0827,-0.0522 z" />
    <path
       id="rect1350-9-3-7-6-3"
       style="fill:#332a09;fill-opacity:1;stroke-width:0.732864"
       d="m 100.04947,91.03858 a 7.9,7.9 0 0 1 -5.66477,7.28069 c 0.006,0.0253 0.0394,0.045 0.0811,0.045 h 5.50095 c 0.0457,0 0.0827,-0.0233 0.0827,-0.0522 z" />
    <path
       id="rect1350-9-3-7-5"
       style="fill:#332a09;fill-opacity:1;stroke-width:0.732864"
       d="m 94.38447,100.17132 a 7.9,7.9 0 0 1 5.656,7.14168 h 0.009 v -7.13445 c 0,-0.0289 -0.037,-0.0522 -0.0827,-0.0522 h -5.50098 c -0.0417,0 -0.0751,0.0197 -0.0811,0.045 z" />
    <path
       id="rect1350-9-3-7-5-3"
       style="fill:#332a09;fill-opacity:1;stroke-width:0.732864"
       d="m 101.61344,87.91299 a 7.9,7.9 0 0 1 5.656,7.14168 h 0.009 v -7.13445 c 0,-0.0289 -0.037,-0.0522 -0.0827,-0.0522 h -5.50098 c -0.0417,0 -0.0751,0.0197 -0.0811,0.045 z" />
    <path
       id="rect1350-9-3-7-6-2"
       style="fill:#332a09;fill-opacity:1;stroke-width:0.732864"
       d="m 107.27844,103.25402 a 7.9,7.9 0 0 1 -5.66477,7.28069 c 0.006,0.0253 0.0394,0.045 0.0811,0.045 h 5.50095 c 0.0457,0 0.0827,-0.0233 0.0827,-0.0522 z" />
  </g>
</svg>
