<?xml version="1.0" encoding="UTF-8" standalone="no"?>
<svg
   width="48"
   height="48"
   viewBox="0 0 48 48"

   version="1.1"
   id="svg12"
   sodipodi:docname="account.svg"
   inkscape:version="1.1 (c68e22c387, 2021-05-23)"
   xmlns:inkscape="http://www.inkscape.org/namespaces/inkscape"
   xmlns:sodipodi="http://sodipodi.sourceforge.net/DTD/sodipodi-0.dtd"
   xmlns="http://www.w3.org/2000/svg"
   xmlns:svg="http://www.w3.org/2000/svg">
  <defs
     id="defs16" />
  <sodipodi:namedview
     id="namedview14"
     pagecolor="#ffffff"
     bordercolor="#666666"
     borderopacity="1.0"
     inkscape:pageshadow="2"
     inkscape:pageopacity="0.0"
     inkscape:pagecheckerboard="0"
     showgrid="false"
     inkscape:zoom="8.6666665"
     inkscape:cx="37.557693"
     inkscape:cy="28.673077"
     inkscape:window-width="1920"
     inkscape:window-height="1017"
     inkscape:window-x="-8"
     inkscape:window-y="-8"
     inkscape:window-maximized="1"
     inkscape:current-layer="svg12" />
  <path
     fill-rule="evenodd"
     clip-rule="evenodd"
     d="M 24,45.011538 C 35.432265,45.011538 44.7,35.604322 44.7,24 44.7,12.395678 35.432265,2.9884616 24,2.9884616 12.567735,2.9884616 3.3,12.395678 3.3,24 3.3,35.604322 12.567735,45.011538 24,45.011538 Z m 0,2.334616 C 36.702555,47.346154 47,36.893731 47,24 47,11.106269 36.702555,0.65384617 24,0.65384617 11.297445,0.65384617 1,11.106269 1,24 1,36.893731 11.297445,47.346154 24,47.346154 Z"
     fill="#333333"
     id="path2"
     style="fill:#0d0d0b;fill-opacity:1;stroke:#0d0d0b;stroke-width:1.5;stroke-miterlimit:4;stroke-dasharray:none;stroke-opacity:1" />
  <path
     d="m 10.2,36.979425 c 0,1.206646 0.8878,2.225822 2.069425,2.358662 C 21.14225,40.335435 26.89869,40.246019 35.7507,39.316608 36.91726,39.194041 37.8,38.192374 37.8,37.001954 37.8,36.337639 37.518365,35.699355 37.02513,35.262899 26.57761,26.02004 20.60612,26.14751 10.93623,35.254378 10.46519,35.698071 10.2,36.327133 10.2,36.979425 Z"
     fill="#333333"
     id="path4"
     style="fill:#0d0d0b;fill-opacity:1;stroke-width:1.15862" />
  <path
     d="m 33.2,19.330769 c 0,5.157516 -4.118955,9.338462 -9.2,9.338462 -5.081045,0 -9.2,-4.180946 -9.2,-9.338462 0,-5.157515 4.118955,-9.3384613 9.2,-9.3384613 5.081045,0 9.2,4.1809463 9.2,9.3384613 z"

     id="path8"
     style="fill:#0d0d0b;fill-opacity:1;stroke:none;stroke-width:1.15862;stroke-opacity:1" />
</svg>
