<?xml version="1.0" encoding="UTF-8" standalone="no"?>
<svg
   id="_x30_1"
   version="1.1"
   viewBox="0 0 511.99951 428.71103"
   xml:space="preserve"
   sodipodi:docname="houme.svg"
   inkscape:version="1.1 (c68e22c387, 2021-05-23)"
   width="511.99951"
   height="428.71103"
   xmlns:inkscape="http://www.inkscape.org/namespaces/inkscape"
   xmlns:sodipodi="http://sodipodi.sourceforge.net/DTD/sodipodi-0.dtd"
   xmlns="http://www.w3.org/2000/svg"
   xmlns:svg="http://www.w3.org/2000/svg"><defs
     id="defs7" /><sodipodi:namedview
     id="namedview5"
     pagecolor="#ffffff"
     bordercolor="#666666"
     borderopacity="1.0"
     inkscape:pageshadow="2"
     inkscape:pageopacity="0.0"
     inkscape:pagecheckerboard="0"
     showgrid="false"
     inkscape:zoom="1.625"
     inkscape:cx="238.15385"
     inkscape:cy="173.23077"
     inkscape:window-width="1920"
     inkscape:window-height="1017"
     inkscape:window-x="-8"
     inkscape:window-y="-8"
     inkscape:window-maximized="1"
     inkscape:current-layer="_x30_1" /><path
     d="m 500.28375,190.67246 -216,-180.8625507 c -15.621,-13.0798791 -40.948,-13.0798791 -56.568,0 v 0 l -216,180.8625507 c -15.621,13.07988 -15.621,34.28685 0,47.36589 11.974,10.02615 29.647,12.35727 44.284,7.01261 l 1.230769,152.48575 c 0.223947,27.74585 25.632231,31.17431 58.769231,31.17431 h 280 c 33.137,0 59.27264,-3.42798 59.38462,-31.17431 l 0.61538,-152.48575 c 14.637,5.34466 32.31,3.01354 44.284,-7.01261 v 0 c 15.621,-13.07988 15.621,-34.28601 0,-47.36589 z m -174.284,171.05243 c 0,9.24911 -8.954,16.74653 -20,16.74653 h -100 c -11.046,0 -20,-7.49742 -20,-16.74653 V 261.2457 c 0,-9.24911 8.954,-16.74654 20,-16.74654 h 100 c 11.046,0 20,7.49743 20,16.74654 z"
     id="path2"
     style="fill:#0d0d0b;fill-opacity:1;stroke-width:0.915056"
     sodipodi:nodetypes="ssscsccsssscssssssssssss" /></svg>
